<?xml version="1.0" encoding="UTF-8"?>
<svg id="a" data-name="Layer 1" xmlns="http://www.w3.org/2000/svg" xmlns:xlink="http://www.w3.org/1999/xlink" viewBox="0 0 512 512">
  <defs>
    <linearGradient id="b" data-name="Solemn Night" x1="3.229" y1="383.698" x2="207.999" y2="383.698" gradientUnits="userSpaceOnUse">
      <stop offset="0" stop-color="#dd58d6"/>
      <stop offset="1" stop-color="#40128b"/>
    </linearGradient>
    <linearGradient id="c" data-name="Solemn Night" x1="302.001" y1="383.698" x2="506.771" y2="383.698" xlink:href="#b"/>
    <linearGradient id="d" data-name="Solemn Night" x1="186.769" y1="311.855" x2="323.157" y2="311.855" xlink:href="#b"/>
    <linearGradient id="e" data-name="Solemn Night" x1="94.962" y1="143.792" x2="410.497" y2="143.792" xlink:href="#b"/>
  </defs>
  <path d="m165.852,362.883l-31.045,32.125-28.815-57.758h0l-5.99-12.006s-.003-.005-.004-.007c-.281-.562-.576-1.106-.879-1.639-.092-.163-.188-.321-.283-.481-.224-.38-.453-.752-.688-1.117-.104-.161-.208-.322-.313-.48-.273-.407-.552-.803-.837-1.19-.063-.085-.123-.174-.187-.259-.354-.469-.719-.922-1.091-1.36-.083-.098-.169-.191-.253-.287-.297-.341-.599-.672-.907-.993-.111-.115-.222-.229-.333-.341-.317-.32-.64-.628-.967-.927-.082-.075-.162-.152-.244-.225-.424-.378-.854-.74-1.293-1.083-.008-.006-.016-.012-.025-.018-.422-.329-.852-.638-1.287-.935-.09-.061-.18-.12-.27-.179-.381-.253-.766-.493-1.155-.721-.075-.044-.149-.089-.224-.132-.279-.159-.561-.31-.843-.456-.529-.689-1.13-1.306-1.812-1.812l-25.323-18.765c-4.106-3.043-9.407-1.226-11.781,4.038-1.536,3.406-1.476,7.45-.135,10.707l-35.958-2.556h0l-2.796-.199c-3.575-.254-6.634,3.255-6.832,7.838-1.059,24.473,13.559,45.412,32.65,46.769l19.864,1.412c.18.396.362.792.557,1.182l5.99,12.006h0l44.223,88.643c3.598,7.213,9.048,12.04,15.059,14.121.801.277,1.613.506,2.431.685.156.034.314.058.471.088,7.067,1.519,14.591-.672,20.572-6.86l53.295-55.15c11.086-11.472,12.835-32.486,3.885-46.697-8.949-14.211-25.342-16.453-36.428-4.981Z" fill="url(#b)"/>
  <path d="m506.717,311.664c-.198-4.583-3.257-8.092-6.832-7.838l-2.796.199h0l-35.958,2.556c1.341-3.257,1.401-7.301-.135-10.707-2.374-5.263-7.675-7.081-11.781-4.038l-25.323,18.765c-.683.506-1.283,1.123-1.812,1.812-.283.146-.564.297-.843.456-.075.043-.149.088-.224.132-.389.228-.775.468-1.156.721-.09.06-.18.118-.269.179-.434.296-.864.605-1.286.934-.009.007-.018.013-.027.02-.438.343-.869.705-1.292,1.082-.082.073-.163.151-.244.226-.327.299-.649.608-.967.927-.112.112-.222.226-.333.34-.308.321-.611.653-.908.994-.084.096-.17.188-.253.286-.372.438-.737.891-1.091,1.36-.063.084-.123.173-.186.258-.286.387-.566.784-.839,1.191-.106.158-.209.318-.312.479-.235.365-.464.737-.688,1.117-.094.16-.19.318-.283.481-.303.533-.598,1.077-.879,1.639-.001.003-.003.005-.004.007l-5.99,12.006h0s-28.815,57.758-28.815,57.758l-31.045-32.125c-11.086-11.472-27.479-9.231-36.428,4.981-8.949,14.211-7.201,35.225,3.885,46.697l53.295,55.15c5.98,6.189,13.504,8.379,20.572,6.86.157-.031.315-.054.471-.088.818-.179,1.63-.407,2.431-.685,6.011-2.081,11.46-6.908,15.059-14.121l44.223-88.643h0s5.99-12.006,5.99-12.006c.195-.39.377-.786.557-1.182l19.865-1.412c19.091-1.357,33.709-22.297,32.65-46.769Z" fill="url(#c)"/>
  <path d="m323.157,311.855c0-22.514-29.604-39.697-68.723-39.697-38.061,0-67.665,17.182-67.665,39.697,0,23.107,29.604,39.697,67.665,39.697,39.119,0,68.723-16.589,68.723-39.697Z" fill="url(#d)"/>
  <path d="m200.164,254.388c.388-7.338.776-14.676,1.164-22.015.864-15.959,12.842-31.068,28.379-42.717,32.734-25.456,75.118-30.129,90.461-42.999,5.292-4.291,9.153-10.485,8.315-22.041-.327-4.507-.654-9.014-.981-13.522-2.005-25.289-14.28-41.537-72.568-42.242-68.163.588-76.308,21.432-78.36,46.504-.378,5.191-.757,10.381-1.135,15.572-30.807,8.538-58.806,22.429-80.476,41.672,0-5.931,0-11.862,0-17.794.19-37.982,1.62-73.098,23.329-94.383,21.435-21.952,63.15-30.073,137.573-29.459,66.541-.193,106.58,5.624,128.493,25.088,22.149,18.846,26.172,51.34,26.139,90.214v24.199c-.075,21.501-4.359,30.936-10.291,35.56-14.463,11.645-49.422-.278-74.022,11.916-10.087,4.774-15.991,11.793-15.343,22.623.311,5.362.621,10.724.932,16.087-35.601-13.28-75.518-14.035-111.609-2.264Z" fill="url(#e)"/>
</svg>